<svg version="1.1" xmlns="http://www.w3.org/2000/svg" xmlns:xlink="http://www.w3.org/1999/xlink" width="146.05263" height="146.05263" viewBox="0,0,146.05263,146.05263"><defs><radialGradient cx="320" cy="180" r="73.02632" gradientUnits="userSpaceOnUse" id="color-1"><stop offset="0" stop-color="#000000"/><stop offset="1" stop-color="#000000" stop-opacity="0"/></radialGradient></defs><g transform="translate(-246.97368,-106.97368)"><g data-paper-data="{&quot;isPaintingLayer&quot;:true}" fill-rule="nonzero" stroke-linecap="butt" stroke-linejoin="miter" stroke-miterlimit="10" stroke-dasharray="" stroke-dashoffset="0" style="mix-blend-mode: normal"><path d="M246.97368,180c0,-40.33132 32.695,-73.02632 73.02632,-73.02632c40.33132,0 73.02632,32.695 73.02632,73.02632c0,40.33132 -32.695,73.02632 -73.02632,73.02632c-40.33132,0 -73.02632,-32.695 -73.02632,-73.02632z" fill="url(#color-1)" stroke="none" stroke-width="0"/><path d="M294.93421,217.049c-4.61448,0 -8.35526,-3.74078 -8.35526,-8.35526v-57.38747c0,-4.61448 3.74078,-8.35526 8.35526,-8.35526h50.13158c4.61448,0 8.35526,3.74078 8.35526,8.35526v57.38747c0,4.61448 -3.74078,8.35526 -8.35526,8.35526z" fill="#000000" stroke="none" stroke-width="0"/><text transform="translate(302.58421,196.47006) scale(1.42752,1.42752)" font-size="40" xml:space="preserve" fill="#ffffff" fill-rule="nonzero" stroke="#dadada" stroke-width="1.5" stroke-linecap="butt" stroke-linejoin="miter" stroke-miterlimit="10" stroke-dasharray="" stroke-dashoffset="0" font-family="Sans Serif" font-weight="normal" text-anchor="start" style="mix-blend-mode: normal"><tspan x="0" dy="0">X</tspan></text></g></g></svg>