<svg version="1.1" xmlns="http://www.w3.org/2000/svg" xmlns:xlink="http://www.w3.org/1999/xlink" width="600.6006" height="385.88589" viewBox="0,0,600.6006,385.88589"><defs><linearGradient x1="418.3751" y1="220.20257" x2="418.3751" y2="280.13881" gradientUnits="userSpaceOnUse" id="color-1"><stop offset="0" stop-color="#00af43" stop-opacity="0"/><stop offset="1" stop-color="#00af43"/></linearGradient></defs><g transform="translate(-21.2012,-15.58561)"><g stroke="none" stroke-width="0" stroke-miterlimit="10"><path d="M31.2012,401.47151c-5.52285,0 -10,-4.47715 -10,-10v-365.88589c0,-5.52285 4.47715,-10 10,-10h580.6006c5.52285,0 10,4.47715 10,10v365.88589c0,5.52285 -4.47715,10 -10,10z" fill="#00af43"/><path d="M323.24823,280.03765c-5.52285,0 -10,-4.47715 -10,-10v-214c0,-5.52285 4.47715,-10 10,-10h190c5.52284,0 10,4.47715 10,10v214c0,5.52285 -4.47716,10 -10,10z" fill="#00b745"/><path d="M300.56481,280.13881v-59.93623h235.62059v59.93623z" fill="url(#color-1)"/></g></g></svg>