<svg version="1.1" xmlns="http://www.w3.org/2000/svg" xmlns:xlink="http://www.w3.org/1999/xlink" width="57.98982" height="57.98914" viewBox="0,0,57.98982,57.98914"><g transform="translate(-291.00506,-151.00544)"><g data-paper-data="{&quot;isPaintingLayer&quot;:true}" fill="#000000" fill-rule="nonzero" stroke="none" stroke-width="1" stroke-linecap="butt" stroke-linejoin="miter" stroke-miterlimit="10" stroke-dasharray="" stroke-dashoffset="0" style="mix-blend-mode: normal"><path d="M348.63063,169.19899l-4.32233,7.83507c-0.53377,0.96875 -1.53271,1.5135 -2.56733,1.5135c-0.01372,0 -0.02744,-0.00549 -0.04254,-0.00549c-0.26345,0.07959 -0.54201,0.13584 -0.83153,0.13584c-1.15536,0 -2.14332,-0.67511 -2.62084,-1.64523l-5.78368,-3.19166c-1.4147,-0.78076 -1.92926,-2.56046 -1.14988,-3.97654c0.78076,-1.41608 2.56458,-1.93064 3.97517,-1.1485l1.59995,0.8823c-2.56046,-7.40147 -9.58184,-12.7392 -17.84229,-12.7392c-10.41749,0 -18.89474,8.4745 -18.89474,18.89337c0,1.61641 -1.31042,2.92821 -2.92683,2.92821c-1.61916,0 -2.92683,-1.31179 -2.92683,-2.92821c0,-13.6462 11.10083,-24.74703 24.74703,-24.74703c10.9691,0 20.28063,7.1778 23.51757,17.08073l0.94405,-1.71109c0.78213,-1.41608 2.56183,-1.93201 3.97654,-1.14988c1.41608,0.78076 1.92789,2.56046 1.1485,3.9738z"/><path d="M345.70517,184.24617c0,13.64757 -11.10495,24.74841 -24.74703,24.74841c-10.9691,0 -20.28337,-7.17918 -23.51757,-17.07936l-0.94543,1.70972c-0.53377,0.97012 -1.53271,1.51487 -2.56458,1.51487c-0.47888,0 -0.96463,-0.118 -1.41196,-0.365c-1.4147,-0.78213 -1.92926,-2.56183 -1.14988,-3.97654l4.3237,-7.82821c0.53652,-0.97561 1.54918,-1.51213 2.58928,-1.5039c0.27032,-0.0837 0.55436,-0.14133 0.85486,-0.14133c1.15536,0 2.14058,0.67374 2.61809,1.64385l5.78368,3.19166c1.41745,0.78076 1.92926,2.56183 1.14988,3.97517c-0.53377,0.97012 -1.53271,1.51487 -2.56458,1.51487c-0.47888,0 -0.96463,-0.118 -1.41196,-0.36637l-1.59995,-0.8823c2.56183,7.39873 9.58459,12.7392 17.8464,12.7392c10.41749,0 18.89199,-8.47725 18.89199,-18.89611c0,-1.61641 1.31042,-2.92683 2.92958,-2.92683c1.61779,0 2.92821,1.31042 2.92546,2.92821z"/></g></g></svg>