<svg version="1.1" xmlns="http://www.w3.org/2000/svg" xmlns:xlink="http://www.w3.org/1999/xlink" width="164.90587" height="86.33764" viewBox="0,0,164.90587,86.33764"><g transform="translate(-237.54706,-136.8312)"><g stroke="none" stroke-miterlimit="10"><path d="M266.23537,206.98054c-6.90356,0 -12.5,-5.59644 -12.5,-12.5v-28.96103c0,-6.90356 5.59644,-12.5 12.5,-12.5h107.52926c6.90356,0 12.5,5.59644 12.5,12.5v28.96103c0,6.90356 -5.59644,12.5 -12.5,12.5z" fill="#ff9833" stroke-width="0"/><path d="M257.54706,223.16884c-11.0457,0 -20,-8.95431 -20,-20v-46.33764c0,-11.0457 8.95431,-20 20,-20h124.90587c11.0457,0 20,8.95431 20,20v46.33764c0,11.0457 -8.95431,20 -20,20zM374.34906,208.06943c7.18218,0 13.00448,-5.82231 13.00448,-13.00448v-30.12986c0,-7.18218 -5.82231,-13.00448 -13.00448,-13.00448h-108.69809c-7.18218,0 -13.00448,5.82231 -13.00448,13.00448v30.12986c0,7.18218 5.82231,13.00448 13.00448,13.00448z" fill="#00af43" stroke-width="0"/><text transform="translate(300.46,186.00002) scale(0.5,0.5)" font-size="40" xml:space="preserve" fill="#fff3e8" stroke-width="1" font-family="Playful" font-weight="normal" text-anchor="start"><tspan x="0" dy="0">Play</tspan></text><path d="M249.70143,213.59367v-67.79814h141.70421v67.79814z" fill-opacity="0.00392" fill="#ffffff" stroke-width="0"/></g></g></svg>