<svg version="1.1" xmlns="http://www.w3.org/2000/svg" xmlns:xlink="http://www.w3.org/1999/xlink" width="160.69945" height="98.96208" viewBox="0,0,160.69945,98.96208"><defs><radialGradient cx="233.58204" cy="182.26567" r="8.50155" gradientUnits="userSpaceOnUse" id="color-1"><stop offset="0" stop-color="#00bfba"/><stop offset="1" stop-color="#2100bf"/></radialGradient></defs><g transform="translate(-159.65033,-128.7782)"><g data-paper-data="{&quot;isPaintingLayer&quot;:true}" fill-rule="nonzero" stroke-linejoin="miter" stroke-miterlimit="10" stroke-dasharray="" stroke-dashoffset="0" style="mix-blend-mode: normal"><path d="M159.65033,227.74027v-95.48052h160.69945v95.48052z" fill="#59ad0d" stroke="none" stroke-width="0" stroke-linecap="butt"/><text transform="translate(160.98914,149.67429) scale(0.48037,0.48037)" font-size="40" xml:space="preserve" fill="#ffffff" fill-rule="nonzero" stroke="none" stroke-width="1" stroke-linecap="butt" stroke-linejoin="miter" stroke-miterlimit="10" stroke-dasharray="" stroke-dashoffset="0" font-family="Sans Serif" font-weight="normal" text-anchor="start" style="mix-blend-mode: normal"><tspan x="0" dy="0">Alfa Romeo Gulia</tspan></text><g><path d="M192.44405,208.24087c0,0 -2.34509,-4.0131 -2.99152,-9.03321c-0.61729,-4.84788 0.33444,-10.51431 0.33444,-10.51431c0,0 -0.13984,-5.41946 -0.11421,-6.71396c0.01092,-0.55218 0.06959,-1.50791 0.5121,-2.40415c0.46464,-0.94111 1.47261,-2.02293 1.47261,-2.02293c0,0 6.10065,-1.8861 10.0809,-2.52712c4.15058,-0.66845 12.66999,-0.94996 12.66999,-0.94996l42.96401,-6.61555c0,0 7.20303,-2.47386 9.8439,-2.94325c2.28021,-0.40528 9.1863,-0.55761 9.1863,-0.55761c0,0 3.15527,0.80843 4.36544,1.26283c1.26188,0.75559 2.00611,1.96418 2.00611,1.96418l2.66744,5.73202c0,0 2.53942,3.19022 3.65211,10.09921c1.10128,6.83812 -0.45779,10.43393 -0.45779,10.43393l-0.76844,6.02759c0,0 -0.19239,1.50452 -0.92854,2.27556c-0.85631,0.8969 -4.43837,3.05862 -4.43837,3.05862c0,0 -5.50338,2.14999 -8.08631,2.59066c-2.64592,0.45142 -10.39604,0.72283 -10.39604,0.72283l-42.71771,6.74726c0,0 -7.9292,2.36754 -12.20226,3.05572c-3.87896,0.62471 -11.34457,0.7365 -11.34457,0.7365c0,0 -1.25301,-0.58935 -1.65203,-1.31493c-0.38793,-0.70543 -0.9659,-1.51649 -1.15988,-2.06461c-0.39932,-1.12839 -2.49767,-7.0453 -2.49767,-7.0453z" fill="#031631" stroke="#000000" stroke-width="0.5" stroke-linecap="round"/><path d="M264.1186,207.4837c-12.27116,2.22679 -55.59218,9.62669 -55.59218,9.62669l2.13452,-0.73559l-0.62935,-0.74033c0,0 16.16137,-2.41174 25.72503,-3.9547c11.23805,-1.81311 39.72175,-6.7188 39.72175,-6.7188c0,0 -4.19303,1.22221 -11.35977,2.52273z" fill="#a50000" stroke="none" stroke-width="0" stroke-linecap="round"/><path d="M268.79857,166.82236c0,0 -28.58365,4.28501 -39.82272,6.09183c-9.56452,1.53763 -25.66591,4.32179 -25.66591,4.32179l0.36509,-0.90049l-2.25754,-0.02825c0,0 43.45385,-6.57518 55.80365,-8.3136c7.21268,-1.01529 11.57742,-1.17129 11.57742,-1.17129z" data-paper-data="{&quot;index&quot;:null}" fill="#a50000" stroke="none" stroke-width="0" stroke-linecap="round"/><path d="M211.91445,208.53275l-3.86715,-25.83233c0,0 13.60316,-0.16963 19.23166,-1.0761c5.75631,-0.92705 17.47744,-5.08853 17.47744,-5.08853l4.69437,26.79552c0,0 -8.38391,-1.27566 -18.52393,0.28919c-6.53314,1.00822 -19.01238,4.91225 -19.01238,4.91225z" fill="#ffffff" stroke="#000000" stroke-width="0.25" stroke-linecap="butt"/><path d="M242.12466,179.33038c0,0 0.69906,-2.20023 2.7233,-3.2529c2.34402,-1.21895 10.38573,-4.48579 10.38573,-4.48579c0,0 3.12817,-0.10241 4.98592,3.4854c1.54484,2.9835 2.90084,9.2879 3.28587,11.82552c0.37304,2.45859 1.13774,9.50941 0.73349,12.83902c-0.52109,4.29193 -3.38106,4.824 -3.38106,4.824c0,0 -9.22046,-1.01031 -11.59942,-1.41471c-2.62427,-0.44612 -3.58533,-1.78692 -3.58533,-1.78692z" fill="#4c5e73" stroke="#000000" stroke-width="0.5" stroke-linecap="round"/><path d="M258.91249,205.94881c0,0 -14.39844,3.2616 -18.83794,4.02599c-7.21896,1.24296 -20.35291,2.72191 -20.35291,2.72191c0,0 -1.76702,0.20832 -2.44302,0.13139c-0.51249,-0.05833 -1.85521,-0.3791 -1.85521,-0.3791l-0.94208,-0.94543c0,0 1.48182,-0.80277 3.33223,-1.76008c1.87442,-0.96971 4.04596,-1.97586 6.7972,-2.79461c3.88094,-1.15494 6.76035,-1.63302 10.8238,-2.07132c3.98184,-0.61423 10.71349,-0.26213 10.71349,-0.26213c0,0 10.1786,0.79616 12.21213,1.0197c2.23938,0.24617 0.55231,0.31367 0.55231,0.31367z" fill="#4c5e73" stroke="#000000" stroke-width="0.5" stroke-linecap="round"/><path d="M252.5011,170.87971c-1.86052,0.85069 -11.27451,4.80222 -11.27451,4.80222c0,0 -6.28072,2.44774 -10.25409,3.1147c-3.99561,0.85962 -6.87951,1.30973 -10.92682,1.43163c-2.86919,0.08642 -5.24681,-0.18709 -7.3309,-0.51928c-2.05741,-0.32794 -3.71633,-0.62491 -3.71633,-0.62491l0.59762,-1.1934c0,0 1.17412,-0.72611 1.64239,-0.94239c0.61766,-0.28529 2.36074,-0.64226 2.36074,-0.64226c0,0 12.93419,-2.71932 20.17838,-3.80564c4.45502,-0.66807 19.14944,-2.09187 19.14944,-2.09187c0,0 1.62296,-0.46558 -0.4259,0.47121z" data-paper-data="{&quot;index&quot;:null}" fill="#4c5e73" stroke="#000000" stroke-width="0.5" stroke-linecap="round"/><path d="M213.19207,185.33961l2.68308,19.41588c0,0 0.22613,0.82121 -0.54999,1.40924c-2.0029,1.51749 -6.52333,3.89863 -7.95603,4.55261c-1.88252,0.85931 -2.58703,-0.08575 -2.58703,-0.08575c0,0 -2.73114,-2.84619 -4.93412,-13.59921c-0.74798,-11.0151 0.55119,-14.649 0.55119,-14.649c0,0 0.33404,-0.93278 1.94929,-0.81144c1.64462,0.12354 6.82622,1.29554 9.44709,2.35218c1.03825,0.41858 1.39652,1.41551 1.39652,1.41551z" fill="#4c5e73" stroke="#000000" stroke-width="0.5" stroke-linecap="round"/><path d="M197.96737,214.5724c0,0 -2.06206,-1.51694 -3.51965,-3.42835c-1.55933,-2.04483 -2.54206,-3.92324 -2.54206,-3.92324" fill="none" stroke="#000000" stroke-width="0.5" stroke-linecap="round"/><path d="M189.60944,189.26939c0,0 0.3433,-2.09197 1.1818,-4.52296c0.78379,-2.27239 2.26533,-4.36002 2.26533,-4.36002" data-paper-data="{&quot;index&quot;:null}" fill="none" stroke="#000000" stroke-width="0.5" stroke-linecap="round"/><path d="M258.48151,172.05858c0,0 0.49969,-1.28817 0.8134,-1.74239c0.2553,-0.36963 1.05902,-1.06432 1.05902,-1.06432c0,0 0.70604,-0.28958 1.53328,-0.31997c2.4008,-0.08822 15.61663,-1.01132 15.61663,-1.01132c0,0 1.37092,0.2104 1.72425,1.00428c1.32917,2.98632 4.2038,10.69041 4.94587,15.08224c0.66604,3.94183 0.01079,12.21692 -0.29187,15.82035c-0.11638,1.38566 -1.03971,1.49152 -1.03971,1.49152c0,0 -12.59045,2.93102 -14.89757,3.601c-0.79496,0.23086 -1.55621,0.17759 -1.55621,0.17759c0,0 -0.98119,-0.40723 -1.33962,-0.67802c-0.44045,-0.33275 -1.10814,-1.17119 -1.10814,-1.17119" fill="none" stroke="#000000" stroke-width="0.25" stroke-linecap="round"/><path d="M285.86314,201.34943c0,0 -1.3913,1.03748 -2.08508,1.43328c-0.49967,0.28507 -1.50497,0.70288 -1.96953,0.80696c-0.30467,0.06825 -0.19449,-0.12949 -0.19449,-0.12949c0,0 2.73247,-1.60497 3.76206,-3.38437c0.98142,-1.69616 2.47534,-6.91164 2.47534,-6.91164c0,0 -0.48806,3.48589 -0.75994,4.85388c-0.11597,0.58348 -0.29186,1.44654 -0.55033,2.06387c-0.24386,0.58242 -0.67804,1.26749 -0.67804,1.26749z" fill="#ffffff" stroke="#000000" stroke-width="0.25" stroke-linecap="round"/><path d="M280.50252,166.70967c0,0 0.62729,0.51412 1.04169,0.99053c0.43922,0.50497 0.87719,1.26916 1.17047,1.78673c0.68761,1.21347 2.24542,4.36987 2.24542,4.36987c0,0 -3.05582,-4.48274 -4.52015,-5.78502c-1.53618,-1.36619 -4.63438,-2.03213 -4.63438,-2.03213c0,0 -0.16669,-0.15315 0.144,-0.18399c0.47375,-0.04704 1.55939,0.03403 2.1233,0.14781c0.78296,0.15798 2.42964,0.70619 2.42964,0.70619z" data-paper-data="{&quot;index&quot;:null}" fill="#ffffff" stroke="#000000" stroke-width="0.25" stroke-linecap="round"/><path d="M258.90682,205.71135l-0.25344,1.67664c0,0 0.58071,0.86072 0.35093,1.26874c-0.21142,0.3754 -0.51705,1.73611 -1.15534,2.49961c-0.93575,1.11931 -2.0161,1.87692 -2.0161,1.87692l-0.95596,0.02309c0,0 -0.67301,-0.27954 -0.55291,-0.80847c0.19944,-0.87839 0.96678,-3.66401 0.96678,-3.66401c0,0 0.31276,-0.80514 0.59987,-1.01772c0.33541,-0.24833 1.22653,-0.37147 1.22653,-0.37147l0.0621,-1.64583z" fill="#031631" stroke="#000000" stroke-width="0.5" stroke-linecap="round"/><path d="M251.00185,171.70572l-0.57568,-1.54311c0,0 -0.88473,0.16286 -1.28114,0.03239c-0.33933,-0.11169 -0.88906,-0.77793 -0.88906,-0.77793c0,0 -1.60311,-2.40387 -2.06824,-3.17521c-0.28009,-0.46448 0.27113,-0.94118 0.27113,-0.94118l0.91487,-0.27821c0,0 1.26359,0.38012 2.50343,1.14905c0.84572,0.5245 1.56311,1.72045 1.8817,2.01049c0.34626,0.31524 0.06513,1.31476 0.06513,1.31476l0.76702,1.5123z" data-paper-data="{&quot;index&quot;:null}" fill="#031631" stroke="#000000" stroke-width="0.5" stroke-linecap="round"/><path d="M288.07187,178.71835c0,0 -4.14864,-0.67019 -5.95098,-1.00911c-1.93668,-0.36419 -6.51547,-2.36321 -6.51547,-2.36321" fill="none" stroke="#000000" stroke-width="0.5" stroke-linecap="round"/><path d="M278.54516,194.50247c0,0 3.71967,-3.33548 5.44408,-4.28929c1.6048,-0.88764 5.33326,-2.82644 5.33326,-2.82644" data-paper-data="{&quot;index&quot;:null}" fill="none" stroke="#000000" stroke-width="0.5" stroke-linecap="round"/><path d="M272.05468,201.50446c0,0 -4.21145,2.25519 -6.42988,3.01981c-1.74136,0.6002 -6.73102,2.05911 -6.73102,2.05911" fill="none" stroke="#000000" stroke-width="0.5" stroke-linecap="round"/><path d="M252.17582,170.20497c0,0 5.1954,-0.18139 7.03715,-0.15826c2.34632,0.02947 7.05286,0.84842 7.05286,0.84842" data-paper-data="{&quot;index&quot;:null}" fill="none" stroke="#000000" stroke-width="0.5" stroke-linecap="round"/><path d="M191.9864,182.31134l4.22357,-0.6802c0,0 1.60853,0.12298 2.2767,0.32197c0.93,0.27695 1.6822,0.78534 1.6822,0.78534" fill="none" stroke="#000000" stroke-width="0.25" stroke-linecap="round"/><path d="M204.40729,210.41013c0,0 -0.55455,0.71884 -1.35058,1.27377c-0.57193,0.39869 -2.0605,1.02047 -2.0605,1.02047l-4.22357,0.6802" data-paper-data="{&quot;index&quot;:null}" fill="none" stroke="#000000" stroke-width="0.25" stroke-linecap="round"/><path d="M216.96583,212.7624c0,0 -2.51797,0.97832 -5.18191,1.087c-1.84749,0.13933 -4.49178,-0.23578 -5.33886,-0.60294c-1.92728,-0.83536 -3.03505,-4.6666 -3.03505,-4.6666" fill="none" stroke="#000000" stroke-width="0.5" stroke-linecap="round"/><path d="M199.95656,185.0046c0,0 -0.14268,-3.76343 1.3376,-5.08377c0.65062,-0.58032 2.91021,-1.70061 4.60793,-2.12344c2.42063,-0.69235 4.96823,-0.56175 4.96823,-0.56175" data-paper-data="{&quot;index&quot;:null}" fill="none" stroke="#000000" stroke-width="0.5" stroke-linecap="round"/><path d="M212.0162,176.75905l0.05999,-2.33617" fill="none" stroke="#000000" stroke-width="0.25" stroke-linecap="round"/><path d="M218.12021,212.85467l1.11951,2.43702" fill="none" stroke="#000000" stroke-width="0.25" stroke-linecap="round"/><path d="M219.0106,173.32357l-0.88873,0.17668c0,0 -1.14094,-0.43864 -1.74366,-0.28798c-0.93444,0.09393 -0.80531,0.03966 -1.36456,0.17621c-0.72454,0.17691 -1.52982,0.69094 -1.52982,0.69094l-1.06004,0.00923c0,0 0.7905,-0.59925 1.67493,-0.95783c0.85527,-0.34676 1.79573,-0.4521 2.34837,-0.51629c1.06867,-0.12413 2.5635,0.70902 2.5635,0.70902z" fill="#031630" stroke="#000000" stroke-width="0.25" stroke-linecap="round"/><path d="M236.54504,170.65431l-0.88873,0.17668c0,0 -1.14094,-0.43864 -1.74366,-0.28798c-0.93444,0.09393 -0.80531,0.03966 -1.36456,0.17621c-0.72454,0.17691 -1.52981,0.69094 -1.52981,0.69094l-1.06006,0.00925c0,0 0.7905,-0.59925 1.67493,-0.95783c0.85527,-0.34676 1.79573,-0.4521 2.34837,-0.51629c1.06867,-0.12413 2.5635,0.70902 2.5635,0.70902z" fill="#031630" stroke="#000000" stroke-width="0.25" stroke-linecap="round"/><path d="M224.83781,215.57311c-0.54484,0.11256 -1.47083,0.30781 -2.39172,0.2471c-0.95229,-0.06277 -1.89096,-0.38354 -1.89096,-0.38354l1.00935,-0.32403c0,0 0.92594,0.23522 1.6694,0.17571c0.57385,-0.04592 0.4342,-0.05693 1.35088,-0.26111c0.61954,-0.04619 1.56508,-0.82084 1.56508,-0.82084l0.89927,-0.11127c0,0 -1.15767,1.26034 -2.21128,1.478z" data-paper-data="{&quot;index&quot;:null}" fill="#031430" stroke="#000000" stroke-width="0.25" stroke-linecap="round"/><path d="M242.03048,212.81316c-0.54484,0.11256 -1.47083,0.30781 -2.39172,0.2471c-0.95229,-0.06277 -1.89096,-0.38354 -1.89096,-0.38354l1.00936,-0.32405c0,0 0.92594,0.23522 1.66938,0.17571c0.57385,-0.04592 0.43421,-0.05692 1.35088,-0.26111c0.61954,-0.04619 1.56508,-0.82084 1.56508,-0.82084l0.89927,-0.11127c0,0 -1.15767,1.26034 -2.21128,1.478z" data-paper-data="{&quot;index&quot;:null}" fill="#031430" stroke="#000000" stroke-width="0.25" stroke-linecap="round"/><path d="M236.63459,212.41756l-0.78649,-1.83632" fill="none" stroke="#000000" stroke-width="0.25" stroke-linecap="round"/><path d="M229.15547,172.07213l-0.24723,1.51206" fill="none" stroke="#000000" stroke-width="0.25" stroke-linecap="round"/><path d="M194.12506,212.65498c0,0 2.07995,2.64339 2.82455,3.38835c0.54191,0.54218 0.74459,0.69348 0.74459,0.69348c0,0 0.51114,0.33885 1.0459,0.5442c0.58205,0.22352 1.1968,0.31835 1.33315,0.40552c0.26517,0.16953 0.11171,0.29587 0.11171,0.29587l-2.30337,-0.55602c0,0 -0.52916,-0.29199 -0.95352,-0.66865c-0.34596,-0.30707 -0.61907,-0.65263 -0.88763,-1.02618c-0.63634,-0.88512 -1.91538,-3.07658 -1.91538,-3.07658z" fill="#650000" stroke="#000000" stroke-width="0.25" stroke-linecap="round"/><path d="M190.53961,180.83677c0.13769,-0.43897 0.28851,-0.85281 0.52058,-1.25297c0.28466,-0.49085 0.69538,-0.93421 0.69538,-0.93421l2.01234,-1.25106c0,0 0.18536,0.07177 -0.01317,0.31598c-0.10208,0.12557 -0.656,0.40862 -1.13844,0.80357c-0.44324,0.36286 -0.82216,0.84505 -0.82216,0.84505c0,0 -0.14492,0.20728 -0.48921,0.89218c-0.47308,0.94107 -1.61795,4.10381 -1.61795,4.10381c0,0 0.52634,-2.48222 0.85262,-3.52237z" data-paper-data="{&quot;index&quot;:null}" fill="#670000" stroke="#000000" stroke-width="0.25" stroke-linecap="round"/><text transform="translate(282.77129,189.64384) rotate(-98.48538) scale(0.04518,0.06144) skewX(0.41068)" font-size="40" xml:space="preserve" data-paper-data="{&quot;index&quot;:null}" fill="#ffffff" fill-rule="nonzero" stroke="none" stroke-width="1" stroke-linecap="butt" stroke-linejoin="miter" stroke-miterlimit="10" stroke-dasharray="" stroke-dashoffset="0" font-family="Sans Serif" font-weight="normal" text-anchor="start" style="mix-blend-mode: normal"><tspan x="0" dy="0">CARABINIERI</tspan></text><path d="M233.32891,200.76532l-2.74764,-17.0608c0,0 0.22368,-0.39562 0.64967,-0.51239c1.23139,-0.33757 3.77536,-0.691 4.53154,-0.81279c0.43497,-0.07005 0.84889,0.35403 0.84889,0.35403l2.74764,17.0608c0,0 -0.16271,0.43516 -0.62793,0.51008c-0.72759,0.11718 -3.20359,0.64159 -4.55049,0.73839c-0.57192,0.04111 -0.85167,-0.27733 -0.85167,-0.27733z" fill="#0010ca" stroke="#000000" stroke-width="0.5" stroke-linecap="butt"/><path d="M235.19415,198.8523l-2.13135,-13.23408c0,0 -0.01074,-0.34018 0.27044,-0.48541c0.34877,-0.18013 0.86465,-0.20073 1.0641,-0.23285c0.28759,-0.04632 0.65854,0.39727 0.65854,0.39727l2.13135,13.23408c0,0 -0.22664,0.24831 -0.48167,0.35642c-0.31335,0.13283 -0.68246,0.13306 -0.88447,0.16559c-0.263,0.04236 -0.62694,-0.20103 -0.62694,-0.20103z" fill="#ffffff" stroke="#000000" stroke-width="0.5" stroke-linecap="butt"/><path d="M231.46321,187.93319l1.619,-0.26074" fill="none" stroke="#000000" stroke-width="0.5" stroke-linecap="round"/><path d="M235.49407,187.33436l1.37369,-0.22123" fill="none" stroke="#000000" stroke-width="0.5" stroke-linecap="round"/><path d="M237.17574,196.52613l1.42276,-0.22914" fill="none" stroke="#000000" stroke-width="0.5" stroke-linecap="round"/><path d="M234.67365,196.92909l-1.56994,0.25285" fill="none" stroke="#000000" stroke-width="0.5" stroke-linecap="round"/><path d="M241.76295,180.94814c0.74655,4.63554 -2.31095,8.98327 -6.82914,9.71092c-4.51819,0.72765 -8.7861,-2.44032 -9.53265,-7.07586c-0.74655,-4.63554 2.31095,-8.98327 6.82914,-9.71092c4.51819,-0.72765 8.78609,2.44031 9.53265,7.07586z" fill="url(#color-1)" stroke="none" stroke-width="0" stroke-linecap="butt"/><path d="M278.77026,168.02269l5.46057,6.72392l-12.17693,-2.64701l9.60562,0.98747z" fill="#a70000" stroke="#000000" stroke-width="0.25" stroke-linecap="round"/><path d="M285.10541,194.62773l-8.8099,3.95329l10.7302,-6.33619l-3.07346,8.09833z" data-paper-data="{&quot;index&quot;:null}" fill="#a70000" stroke="#000000" stroke-width="0.25" stroke-linecap="round"/></g></g></g></svg>